<svg viewBox="0 0 128 32" xmlns="http://www.w3.org/2000/svg"><g stroke="null"><path stroke="null" fill="#67ea94" d="m23.26564,6.35673c-6.62227,6.62221 -13.21093,13.21089 -19.87046,19.87045c-0.22669,-0.25617 -0.41433,-0.46824 -0.59683,-0.67447c0.26756,-0.45147 19.83804,-20.08739 20.69505,-20.75892c0.16817,0.21295 0.34391,0.43549 0.57077,0.72276c-0.23058,0.24316 -0.49775,0.52491 -0.79853,0.84017"></path><path stroke="null" fill="#67ea94" d="m58.71964,20.49409c1.46159,1.4589 2.88987,2.88449 4.35237,4.34422c-0.25207,0.23331 -0.46937,0.43443 -0.74326,0.68794c-6.62277,-6.62272 -13.25603,-13.25593 -19.94725,-19.9471c-6.66692,6.66684 -13.29977,13.29962 -19.98824,19.988c-0.24234,-0.23123 -0.45747,-0.43651 -0.64132,-0.61193c6.91105,-6.91088 13.79507,-13.79473 20.71471,-20.7142c5.36369,5.36372 10.79169,10.79174 16.25299,16.25307"></path><path stroke="null" fill="#67ea94" d="m63.40621,11.27796c-1.88133,-1.88156 -3.72937,-3.72983 -5.56934,-5.57004c0.35392,-0.38511 0.66423,-0.72276 0.93106,-1.01309c6.90017,6.90016 13.7712,13.77118 20.69369,20.69366c-0.2456,0.25734 -0.55949,0.58625 -0.84626,0.88672c-0.07633,0.00411 -0.09831,0.00746 -0.1199,0.00585c-0.0213,-0.00159 -0.04953,-0.00089 -0.06231,-0.01364c-4.99858,-4.98469 -9.99609,-9.97043 -15.02694,-14.98946"></path><path stroke="null" fill="#67ea94" d="m85.91389,15.54784c3.20114,3.20114 6.36898,6.36897 9.56467,9.56466c-0.49468,0.48252 -0.94764,0.92435 -1.35199,1.31877c-6.88742,-6.88745 -13.76937,-13.76944 -20.67665,-20.67676c0.40088,-0.37808 0.85051,-0.80213 1.33559,-1.25961c-0.04313,0.00235 -0.0209,-0.00159 0.00066,0.00074c0.02095,0.00226 0.04762,0.00449 0.06086,0.01768c3.67848,3.66644 7.35601,7.33384 11.06686,11.03452"></path><path stroke="null" fill="#67ea94" d="m100.70574,18.20802c-4.03382,-4.03238 -8.03433,-8.03145 -12.10045,-12.0961c0.65463,-0.65857 1.2831,-1.29084 1.87877,-1.89011c6.91332,6.9133 13.78179,13.78176 20.60409,20.60405c-0.58786,0.57803 -1.21148,1.1912 -1.89798,1.86622c-2.75115,-2.75104 -5.60114,-5.6009 -8.48443,-8.48406"></path><path stroke="null" fill="#67ea94" d="m125.05936,25.0292c-0.62078,0.63488 -1.20905,1.23672 -1.73777,1.77764c-6.92826,-6.92815 -13.80838,-13.80818 -20.65643,-20.65613c0.59568,-0.5881 1.28244,-1.26612 2.00659,-1.98105c0.09975,0.09126 0.26548,0.23152 0.4185,0.38448c6.59125,6.58909 13.1814,13.17929 19.77136,19.76966c0.10975,0.10976 0.24931,0.20796 0.31056,0.34117c0.03723,0.08097 -0.04932,0.21886 -0.1128,0.36422"></path></g></svg>
